<svg xmlns="http://www.w3.org/2000/svg" viewBox="0 0 440 230" width="100%" font-family="Inter, system-ui, sans-serif"><defs><marker id="ah-c9AA3AF" viewBox="0 0 10 10" refX="8" refY="5" markerWidth="6.5" markerHeight="6.5" orient="auto-start-reverse"><path d="M0 0 L10 5 L0 10 z" fill="#9AA3AF"/></marker></defs><g transform="translate(14.25 -13.4) scale(1)"><g class="a0__scope" transform="translate(190 110) scale(2 2) translate(-50 -40)" color="#3A4150" fill="none" stroke="currentColor" stroke-width="1.3" stroke-linecap="round" stroke-linejoin="round"><rect x="18" y="14" width="64" height="4" fill="#3A4150"/><rect x="18" y="62" width="64" height="4" fill="#3A4150"/><line x1="30" y1="20" x2="30" y2="60"/><polyline points="27 54 30 60 33 54"/><line x1="45" y1="20" x2="45" y2="60"/><polyline points="42 54 45 60 48 54"/><line x1="60" y1="20" x2="60" y2="60"/><polyline points="57 54 60 60 63 54"/><line x1="75" y1="20" x2="75" y2="60"/><polyline points="72 54 75 60 78 54"/><text x="9" y="12" fill="#3A4150" stroke="none" font-family="Georgia, serif" font-style="italic" font-size="12" text-anchor="middle" dominant-baseline="middle">+</text><text x="9" y="66" fill="#3A4150" stroke="none" font-family="Georgia, serif" font-style="italic" font-size="12" text-anchor="middle" dominant-baseline="middle">−</text></g><line x1="335" y1="64" x2="335" y2="158" stroke="#9AA3AF" stroke-width="1.4" marker-start="url(#ah-c9AA3AF)" marker-end="url(#ah-c9AA3AF)"/><line x1="330" y1="64" x2="340" y2="64" stroke="#9AA3AF" stroke-width="1.2"/><line x1="330" y1="158" x2="340" y2="158" stroke="#9AA3AF" stroke-width="1.2"/><foreignObject x="71.5" y="97.18" width="19" height="23.4" overflow="visible"><div xmlns="http://www.w3.org/1999/xhtml" style="font-size:13px;color:#3A4150;line-height:1.1;white-space:nowrap"><math xmlns="http://www.w3.org/1998/Math/MathML"><semantics><mrow><mi>A</mi></mrow><annotation encoding="application/x-tex">A</annotation></semantics></math></div></foreignObject><foreignObject x="329" y="99" width="18" height="21.6" overflow="visible"><div xmlns="http://www.w3.org/1999/xhtml" style="font-size:12px;color:#9AA3AF;line-height:1.1;white-space:nowrap"><math xmlns="http://www.w3.org/1998/Math/MathML"><semantics><mrow><mi>d</mi></mrow><annotation encoding="application/x-tex">d</annotation></semantics></math></div></foreignObject><foreignObject x="161" y="209.08" width="84" height="23.4" overflow="visible"><div xmlns="http://www.w3.org/1999/xhtml" style="font-size:13px;color:#3A4150;line-height:1.1;white-space:nowrap"><math xmlns="http://www.w3.org/1998/Math/MathML"><semantics><mrow><mi>C</mi><mo>=</mo><msub><mi>ε</mi><mn>0</mn></msub><mi>A</mi><mi mathvariant="normal">/</mi><mi>d</mi></mrow><annotation encoding="application/x-tex">C = \varepsilon_0 A/d</annotation></semantics></math></div></foreignObject></g></svg>
