<svg xmlns="http://www.w3.org/2000/svg" viewBox="0 0 440 230" width="100%" font-family="Inter, system-ui, sans-serif"><defs><marker id="ah-cE0A24B" viewBox="0 0 10 10" refX="8" refY="5" markerWidth="6.5" markerHeight="6.5" orient="auto-start-reverse"><path d="M0 0 L10 5 L0 10 z" fill="#E0A24B"/></marker></defs><g class="a0__scope" transform="translate(200 115) scale(1.58 1.58) translate(-60 -45)" color="#4A9DB0" fill="none" stroke="currentColor" stroke-width="1.2" stroke-linecap="round" stroke-linejoin="round"><rect x="40" y="38" width="40" height="14" rx="1"/><line x1="60" y1="38" x2="60" y2="52"/><text x="50" y="45" fill="#4A9DB0" stroke="none" font-family="Georgia, serif" font-style="italic" font-size="8" text-anchor="middle" dominant-baseline="middle">N</text><text x="70" y="45" fill="#4A9DB0" stroke="none" font-family="Georgia, serif" font-style="italic" font-size="8" text-anchor="middle" dominant-baseline="middle">S</text><path d="M78 40 C 104 22, 104 68, 78 50"/><path d="M78 44 C 96 34, 96 56, 78 48"/><path d="M42 40 C 16 22, 16 68, 42 50"/><path d="M42 44 C 24 34, 24 56, 42 48"/></g><g class="a1__scope" transform="translate(90 90) scale(0.73 0.73) translate(-15 -15)" color="#4C77B8" fill="none" stroke="currentColor" stroke-width="1.6" stroke-linecap="round" stroke-linejoin="round"><circle cx="15" cy="15" r="11"/><line x1="9" y1="15" x2="21" y2="15" stroke-width="2"/></g><line x1="108" y1="90" x2="160" y2="105" stroke="#E0A24B" stroke-width="2" stroke-linecap="round" opacity="0.55" marker-end="url(#ah-cE0A24B)"/><text x="63.16" y="74.7" fill="#3A4150" font-size="13" font-family="Inter, system-ui, sans-serif" text-anchor="middle">e^-</text><text x="63.48" y="117.15" fill="#E0A24B" font-size="13" font-family="Inter, system-ui, sans-serif" text-anchor="middle">spiral in</text></svg>
