<svg xmlns="http://www.w3.org/2000/svg" viewBox="0 0 440 230" width="100%" font-family="Inter, system-ui, sans-serif"><defs><marker id="ah-cD96A54" viewBox="0 0 10 10" refX="8" refY="5" markerWidth="6.5" markerHeight="6.5" orient="auto-start-reverse"><path d="M0 0 L10 5 L0 10 z" fill="#D96A54"/></marker></defs><g class="a0__scope" transform="translate(200 100) scale(1.67 1.67) translate(-45 -12)" color="#3A4150" fill="none" stroke="currentColor" stroke-width="1.5" stroke-linecap="round" stroke-linejoin="round"><line x1="6" y1="12" x2="24" y2="12"/><polyline points="24 12 29 5 37 19 45 5 53 19 61 5 66 12"/><line x1="66" y1="12" x2="84" y2="12"/></g><g class="a1__scope" transform="translate(200 165) scale(0.38 0.38) translate(-60 -25)" color="#D96A54" fill="none" stroke="currentColor" stroke-width="1.4" stroke-linecap="round" stroke-linejoin="round"><rect x="10" y="12" width="30" height="26" rx="2"/><rect x="80" y="12" width="30" height="26" rx="2"/><line x1="44" y1="25" x2="76" y2="25" stroke-width="2"/><polyline points="70 20 78 25 70 30" stroke-width="2"/><text x="25" y="25" fill="#D96A54" stroke="none" font-family="Georgia, serif" font-style="italic" font-size="8" text-anchor="middle" dominant-baseline="middle">hot</text><text x="95" y="25" fill="#D96A54" stroke="none" font-family="Georgia, serif" font-style="italic" font-size="8" text-anchor="middle" dominant-baseline="middle">cold</text></g><line x1="70" y1="150" x2="330" y2="150" stroke="#D96A54" stroke-width="2" stroke-linecap="round" opacity="0.55" marker-end="url(#ah-cD96A54)"/><text x="234.12" y="75.7" fill="#3A4150" font-size="13" font-family="Inter, system-ui, sans-serif" text-anchor="middle">cord</text><text x="200" y="169.65" fill="#D96A54" font-size="13" font-family="Inter, system-ui, sans-serif" text-anchor="middle">big I</text></svg>
