<svg xmlns="http://www.w3.org/2000/svg" viewBox="0 0 440 230" width="100%" font-family="Inter, system-ui, sans-serif"><defs><marker id="ah-c3FA98A" viewBox="0 0 10 10" refX="8" refY="5" markerWidth="6.5" markerHeight="6.5" orient="auto-start-reverse"><path d="M0 0 L10 5 L0 10 z" fill="#3FA98A"/></marker><marker id="ah-c4A9DB0" viewBox="0 0 10 10" refX="8" refY="5" markerWidth="6.5" markerHeight="6.5" orient="auto-start-reverse"><path d="M0 0 L10 5 L0 10 z" fill="#4A9DB0"/></marker></defs><g class="a0__scope" transform="translate(130 115) scale(1.88 1.88) translate(-24 -24)" color="#3A4150" fill="none" stroke="currentColor" stroke-width="1" stroke-linecap="round" stroke-linejoin="round"><rect x="4" y="4" width="40" height="40" rx="1"/><line x1="14" y1="4" x2="14" y2="44"/><line x1="24" y1="4" x2="24" y2="44"/><line x1="34" y1="4" x2="34" y2="44"/><line x1="4" y1="14" x2="44" y2="14"/><line x1="4" y1="24" x2="44" y2="24"/><line x1="4" y1="34" x2="44" y2="34"/></g><line x1="180" y1="115" x2="330" y2="75" stroke="#3FA98A" stroke-width="2" stroke-linecap="round" opacity="0.55" marker-end="url(#ah-c3FA98A)"/><line x1="180" y1="115" x2="330" y2="155" stroke="#4A9DB0" stroke-width="2" stroke-linecap="round" opacity="0.55" marker-end="url(#ah-c4A9DB0)"/><foreignObject x="158.4" y="53.18" width="52.8" height="23.4" overflow="visible"><div xmlns="http://www.w3.org/1999/xhtml" style="font-size:13px;color:#3A4150;line-height:1.1;white-space:nowrap"><math xmlns="http://www.w3.org/1998/Math/MathML"><semantics><mrow><mi>t</mi><mi>r</mi><mi>a</mi><mi>c</mi><mi>k</mi><mi>s</mi></mrow><annotation encoding="application/x-tex">tracks</annotation></semantics></math></div></foreignObject><foreignObject x="243.3" y="46.28" width="29.4" height="23.4" overflow="visible"><div xmlns="http://www.w3.org/1999/xhtml" style="font-size:13px;color:#3FA98A;line-height:1.1;white-space:nowrap"><math xmlns="http://www.w3.org/1998/Math/MathML"><semantics><mrow><mi>r</mi><mi>e</mi><mi>d</mi></mrow><annotation encoding="application/x-tex">red</annotation></semantics></math></div></foreignObject><foreignObject x="239.4" y="174.08" width="37.2" height="23.4" overflow="visible"><div xmlns="http://www.w3.org/1999/xhtml" style="font-size:13px;color:#4A9DB0;line-height:1.1;white-space:nowrap"><math xmlns="http://www.w3.org/1998/Math/MathML"><semantics><mrow><mi>b</mi><mi>l</mi><mi>u</mi><mi>e</mi></mrow><annotation encoding="application/x-tex">blue</annotation></semantics></math></div></foreignObject></svg>
