<svg xmlns="http://www.w3.org/2000/svg" viewBox="0 0 440 230" width="100%" font-family="Inter, system-ui, sans-serif"><g class="a0__scope" transform="translate(110 130) scale(0.8 0.8) translate(-50 -20)" color="#3A4150" fill="none" stroke="currentColor" stroke-width="1.5" stroke-linecap="round" stroke-linejoin="round"><rect x="14" y="12" width="72" height="16" rx="2"/><line x1="50" y1="12" x2="50" y2="28"/><text x="32" y="20" fill="#3A4150" stroke="none" font-family="Georgia, serif" font-style="italic" font-size="9" text-anchor="middle" dominant-baseline="middle">N</text><text x="68" y="20" fill="#3A4150" stroke="none" font-family="Georgia, serif" font-style="italic" font-size="9" text-anchor="middle" dominant-baseline="middle">S</text></g><g class="a1__scope" transform="translate(300 130) scale(1.13 1.13) translate(-40 -40)" color="#D96A54" fill="none" stroke="currentColor" stroke-width="1.4" stroke-linecap="round" stroke-linejoin="round"><ellipse cx="40" cy="40" rx="26" ry="30"/><polyline points="60 30 66 34 62 40"/><line x1="40" y1="40" x2="40" y2="14" stroke-dasharray="3 3"/><polyline points="36 20 40 12 44 20"/></g><line x1="60" y1="70" x2="360" y2="70" stroke="#3A4150" stroke-width="2" stroke-linecap="round"/><foreignObject x="138.4" y="97.18" width="52.8" height="23.4" overflow="visible"><div xmlns="http://www.w3.org/1999/xhtml" style="font-size:13px;color:#3A4150;line-height:1.1;white-space:nowrap"><math xmlns="http://www.w3.org/1998/Math/MathML"><semantics><mrow><mi>m</mi><mi>a</mi><mi>g</mi><mi>n</mi><mi>e</mi><mi>t</mi></mrow><annotation encoding="application/x-tex">magnet</annotation></semantics></math></div></foreignObject><text x="258.68" y="54.7" fill="#3A4150" font-size="13" font-family="Inter, system-ui, sans-serif" text-anchor="middle">string</text><foreignObject x="320.6" y="68.18" width="37.2" height="23.4" overflow="visible"><div xmlns="http://www.w3.org/1999/xhtml" style="font-size:13px;color:#3A4150;line-height:1.1;white-space:nowrap"><math xmlns="http://www.w3.org/1998/Math/MathML"><semantics><mrow><mi>c</mi><mi>o</mi><mi>i</mi><mi>l</mi></mrow><annotation encoding="application/x-tex">coil</annotation></semantics></math></div></foreignObject></svg>
